:SAMPLES-PER-SECOND 30
:FULLY-SPECIFIED
:DEGREES
714
root  5.95232 16.4878 -7.06764 1.93335 -3.4113 88.3493
Spine  -8.96198 -2.81763 25.6855
Spine1  -10.645 33.8761 -6.72518
Neck  3.97569e-016 0 -2.38542e-015
Head  -34.8627 -15.9676 30.2209
R_Clavicle  0.249978 -11.7588 0.338055
R_UpperArm  29.246 -10.1058 38.1445
R_Forearm  21.3511 21.6501 -19.296
R_Hand  -3.26997 15.4705 -31.2815
L_Clavicle  -0.968944 -7.93741 5.65493
L_UpperArm  -29.489 -31.3354 -19.8269
L_Forearm  -5.87229 4.61403 5.33417
L_Hand  -0.575872 5.02327 -6.01096
L_Thigh  -48.3668 -26.1554 39.0087
L_Calf  23.202 4.79679 -37.4453
L_Foot  7.65824 6.84335 21.601
L_Toe0  0.505156 0.0325985 -6.13611
R_Thigh  35.5327 14.7201 36.2778
R_Calf  13.5 -16.3603 -65.2299
R_Foot  -15.2211 -18.8893 30.7982
R_Toe0  -1.70051 1.54004 12.0999
715
root  5.51927 17.9409 -6.17347 -11.9127 -3.25059 90.1061
Spine  -9.75138 -4.55327 23.9048
Spine1  -10.9262 30.7654 -6.95874
Neck  3.97569e-016 0 -2.38542e-015
Head  -29.4535 -17.9948 26.0829
R_Clavicle  0.24424 -11.2539 0.362208
R_UpperArm  22.7483 -11.1311 40.9764
R_Forearm  20.5475 23.5075 -21.2256
R_Hand  -2.36762 14.9574 -26.7889
L_Clavicle  -0.73679 -6.50657 4.65719
L_UpperArm  -34.12 -31.0605 -5.83422
L_Forearm  -10.6443 8.27559 9.65771
L_Hand  -0.558802 3.79247 -6.67785
L_Thigh  -49.6188 -24.0162 42.4099
L_Calf  10.0496 3.9238 -29.7038
L_Foot  14.4875 19.5049 24.5925
L_Toe0  0.505156 0.0322277 -6.13612
R_Thigh  33.2765 14.231 34.0261
R_Calf  5.78115 -15.7831 -60.9277
R_Foot  -15.1186 -23.603 23.4809
R_Toe0  -4.82117 3.63696 13.8765
716
root  4.71615 19.302 -5.23078 -27.1783 -2.49021 91.1391
Spine  -10.352 -5.53167 20.8896
Spine1  -11.2406 25.2284 -6.7968
Neck  3.97569e-016 0 -2.38542e-015
Head  -22.6816 -16.6074 21.0138
R_Clavicle  0.231057 -9.55046 0.481761
R_UpperArm  18.5969 -10.5615 40.3829
R_Forearm  18.0283 24.4804 -22.2682
R_Hand  -1.03354 14.301 -19.7189
L_Clavicle  -0.401135 -2.31422 2.9777
L_UpperArm  -40.0384 -27.4242 9.41543
L_Forearm  -9.22736 12.4754 14.7935
L_Hand  -0.367916 2.14985 -5.3392
L_Thigh  -50.5913 -21.2204 43.0806
L_Calf  -3.39659 2.55471 -18.9705
L_Foot  22.0037 29.8233 30.1204
L_Toe0  0.505156 0.0318761 -6.13612
R_Thigh  32.2997 13.2362 30.1658
R_Calf  1.74915 -15.0899 -56.4648
R_Foot  -13.2183 -24.7897 17.0342
R_Toe0  -6.94454 5.56648 16.2705
717
root  3.59806 20.6671 -4.30871 -43.1589 -0.820685 90.8329
Spine  -10.8163 -6.61498 17.5988
Spine1  -11.2321 18.4496 -7.08073
Neck  3.97569e-016 0 -2.38542e-015
Head  -19.1192 -13.2021 17.7221
R_Clavicle  0.216602 -9.10449 0.414817
R_UpperArm  16.6258 -7.31657 38.162
R_Forearm  13.5447 25.216 -23.0725
R_Hand  0.210758 12.9468 -12.4498
L_Clavicle  -0.174828 1.51113 1.06881
L_UpperArm  -44.5757 -21.7963 21.7524
L_Forearm  -3.40659 16.9924 20.6566
L_Hand  -0.192965 0.578217 -3.53385
L_Thigh  -50.6515 -18.2311 42.6526
L_Calf  -14.9702 0.974399 -7.353
L_Foot  24.5651 35.2832 29.8265
L_Toe0  0.505156 0.0315589 -6.13612
R_Thigh  31.2881 10.411 24.366
R_Calf  0.554156 -14.2312 -51.6341
R_Foot  -11.7073 -23.4854 14.5071
R_Toe0  -6.26265 6.01074 19.6133
718
root  2.24391 22.0321 -3.58674 -60.0667 0.377386 88.7999
Spine  -10.7642 -8.25989 14.6468
Spine1  -10.1146 11.431 -7.34374
Neck  3.97569e-016 0 -2.38542e-015
Head  -19.0959 -9.36466 15.8747
R_Clavicle  0.248283 -9.58305 0.627802
R_UpperArm  15.6497 -2.06701 34.4921
R_Forearm  9.98239 26.6502 -24.6836
R_Hand  0.93962 10.9304 -6.7624
L_Clavicle  -0.12172 4.55557 -0.0401055
L_UpperArm  -44.9684 -15.9382 30.3557
L_Forearm  -1.30229 22.4414 28.5687
L_Hand  -0.081789 -0.564981 -1.87734
L_Thigh  -48.2523 -14.4478 41.861
L_Calf  -23.556 -0.190636 1.12115
L_Foot  20.3712 37.3762 20.8727
L_Toe0  0.505156 0.0312916 -6.13612
R_Thigh  30.1931 6.02829 18.1074
R_Calf  0.355985 -13.2786 -46.8667
R_Foot  -10.132 -20.7084 13.282
R_Toe0  -4.04375 4.84097 21.7572
719
root  0.829425 23.2698 -3.30586 -77.8807 -0.734167 86.7712
Spine  -9.51678 -9.03144 11.8015
Spine1  -8.09601 4.54854 -7.30782
Neck  3.97569e-016 0 -2.38542e-015
Head  -20.259 -6.22713 15.2564
R_Clavicle  0.35045 -9.37909 1.53376
R_UpperArm  14.2753 3.26385 27.4027
R_Forearm  8.72701 27.4108 -25.5633
R_Hand  1.16913 9.86464 -4.31972
L_Clavicle  -0.173072 7.8225 -0.629968
L_UpperArm  -39.7586 -11.1525 36.7733
L_Forearm  -5.08155 28.223 37.7479
L_Hand  -0.00517616 -0.634647 -0.142149
L_Thigh  -44.1713 -8.48135 39.8305
L_Calf  -30.4046 -0.742789 5.17882
L_Foot  15.012 36.4456 11.9157
L_Toe0  0.505156 0.0310895 -6.13613
R_Thigh  30.7869 1.85114 12.5565
R_Calf  2.16033 -12.306 -42.4285
R_Foot  -7.70555 -16.4088 10.9281
R_Toe0  -0.85631 2.16135 21.4228
720
root  -0.440577 24.3552 -3.3858 -95.3991 -3.31539 86.4108
Spine  -7.53373 -8.09951 9.02146
Spine1  -5.94748 -1.52105 -7.08422
Neck  3.97569e-016 0 -2.38542e-015
Head  -20.9882 -4.15793 15.4755
R_Clavicle  0.475651 -8.72886 2.58641
R_UpperArm  12.1159 7.24883 17.3955
R_Forearm  7.95583 26.6807 -24.719
R_Hand  0.986875 10.0411 -5.74265
L_Clavicle  -0.301695 12.0704 -1.04351
L_UpperArm  -33.1479 -7.25086 41.8135
L_Forearm  -7.22634 33.7121 44.1147
L_Hand  0.108311 0.178207 2.18199
L_Thigh  -42.028 -0.779363 36.0321
L_Calf  -35.5067 -1.03451 7.38315
L_Foot  11.849 34.1624 7.24535
L_Toe0  0.505156 0.0309679 -6.13613
R_Thigh  33.122 -1.71033 8.20008
R_Calf  5.61416 -11.2578 -38.0053
R_Foot  -5.13694 -11.5737 8.03318
R_Toe0  3.22635 -1.29076 20.2535
721
root  -1.46809 25.3653 -3.55974 -111.21 -5.5052 86.9863
Spine  -6.01477 -7.21978 6.34586
Spine1  -4.29246 -5.37457 -6.43795
Neck  3.97569e-016 0 -2.38542e-015
Head  -21.2916 -2.60604 15.2768
R_Clavicle  0.515096 -8.50438 2.89944
R_UpperArm  10.0955 9.87555 7.65895
R_Forearm  8.43347 25.3411 -23.2113
R_Hand  0.455403 10.3458 -9.49004
L_Clavicle  -0.456388 16.1072 -1.51143
L_UpperArm  -29.6675 -2.69174 44.7749
L_Forearm  -2.35128 37.3681 46.2835
L_Hand  0.284666 1.46599 4.68272
L_Thigh  -42.0438 5.69795 31.4261
L_Calf  -35.9507 -1.40782 10.2799
L_Foot  8.41045 32.0576 1.48434
L_Toe0  0.505156 0.0309422 -6.13613
R_Thigh  35.2043 -4.38757 5.14973
R_Calf  8.97106 -9.96805 -32.9531
R_Foot  -3.80363 -8.12881 7.57567
R_Toe0  7.14581 -4.30442 18.3656
722
root  -2.27457 26.2935 -3.74113 -124.871 -6.83951 87.7059
Spine  -5.12171 -7.11279 3.4228
Spine1  -3.41049 -6.80052 -5.10884
Neck  3.97569e-016 0 -2.38542e-015
Head  -21.4071 -1.14 13.8496
R_Clavicle  0.469697 -7.86826 2.51278
R_UpperArm  9.39051 11.1641 -0.505968
R_Forearm  11.6316 23.7301 -21.463
R_Hand  -0.0554556 9.87244 -12.6595
L_Clavicle  -0.590776 18.9325 -1.93668
L_UpperArm  -27.9431 3.0083 45.1166
L_Forearm  2.31425 37.6502 46.1842
L_Hand  0.37621 2.84159 5.15494
L_Thigh  -40.3446 8.79909 27.3394
L_Calf  -29.5513 -1.94334 14.3946
L_Foot  4.19508 31.2256 -7.20204
L_Toe0  0.505156 0.0310277 -6.13613
R_Thigh  34.7189 -5.34032 2.52209
R_Calf  9.37021 -8.3014 -26.8501
R_Foot  -3.4081 -5.25218 11.3416
R_Toe0  8.23908 -4.69266 15.2459
723
root  -2.92157 27.0013 -3.99115 -137.425 -7.47088 89.0086
Spine  -4.16436 -5.61889 0.84733
Spine1  -2.95103 -8.19538 -3.47406
Neck  3.97569e-016 0 -2.38542e-015
Head  -21.7585 -0.0402794 11.4329
R_Clavicle  0.437456 -6.16504 2.25663
R_UpperArm  10.8564 10.5936 -7.56218
R_Forearm  14.3548 21.9444 -19.598
R_Hand  -0.27878 9.31135 -13.9647
L_Clavicle  -0.677089 20.665 -2.01105
L_UpperArm  -28.5872 8.76505 43.255
L_Forearm  -0.27745 34.5918 44.013
L_Hand  0.151175 2.19905 2.44411
L_Thigh  -33.955 10.5176 24.4508
L_Calf  -20.9889 -2.38696 17.8713
L_Foot  -0.92803 26.8819 -17.6447
L_Toe0  0.505156 0.0312397 -6.13613
R_Thigh  29.8853 -4.00233 -0.503802
R_Calf  5.46507 -6.51325 -20.6612
R_Foot  -3.59157 -2.57034 19.2475
R_Toe0  5.10204 -2.03794 6.27341
724
root  -3.42126 27.4907 -4.32221 -150.035 -7.57843 91.0896
Spine  -2.73221 -1.68587 -0.200515
Spine1  -2.31335 -11.6589 -2.35271
Neck  3.97569e-016 0 -2.38542e-015
Head  -23.557 0.517623 8.6718
R_Clavicle  0.461042 -5.07848 2.40328
R_UpperArm  14.1245 8.29058 -12.1727
R_Forearm  12.4892 21.7284 -19.3773
R_Hand  -0.236462 9.91601 -13.9132
L_Clavicle  -0.681251 21.2429 -1.51939
L_UpperArm  -32.2884 13.7152 40.253
L_Forearm  -8.04935 28.205 37.488
L_Hand  -0.133073 -0.886796 -2.97172
L_Thigh  -24.4242 12.3832 21.6234
L_Calf  -17.7087 -2.58085 19.4471
L_Foot  -3.61654 18.2658 -23.0854
L_Toe0  0.505156 0.0315936 -6.13612
R_Thigh  20.993 -1.06278 -3.55179
R_Calf  0.840039 -4.69548 -14.6805
R_Foot  -4.73224 -2.55112 26.3495
R_Toe0  2.91286 -0.727802 -3.56104
